<?xml version="1.0" encoding="UTF-8"?>
<svg id="_Слой_1" data-name="Слой_1" xmlns="http://www.w3.org/2000/svg" version="1.1" viewBox="0 0 2212 809">
  <!-- Generator: Adobe Illustrator 29.0.1, SVG Export Plug-In . SVG Version: 2.1.0 Build 192)  -->
  <defs>
    <style>
      .st0 {
        fill: #fff;
      }
    </style>
  </defs>
  <path class="st0" d="M1430.4,403.8c0-52,10-100.8,30.1-146.5,20.1-45.6,47-85.3,80.8-119.1,34.7-34.7,74.8-61.6,120.5-80.8,45.6-20.1,94.4-30.1,146.5-30.1h376.4v63h-376.4c-43.8,0-84.9,8.2-123.2,24.6-37.4,16.4-70.7,38.8-99.9,67.1-28.3,28.3-50.6,61.6-67.1,99.9-16.4,38.3-24.6,78.9-24.6,121.8s8.2,84.9,24.6,123.2c16.4,37.4,38.8,70.7,67.1,99.9,29.2,28.3,62.5,50.6,99.9,67.1,38.3,16.4,79.4,24.6,123.2,24.6h376.4v63h-376.4c-52,0-100.8-10-146.5-30.1-45.6-20.1-85.8-47-120.5-80.8-33.8-34.7-60.7-74.8-80.8-120.5-20.1-45.6-30.1-94.5-30.1-146.5Z"/>
  <path class="st0" d="M971.9,27.4h63v376.4c0,42.9,8.2,83.5,24.6,121.8,16.4,37.4,38.8,70.3,67.1,98.6,28.3,28.3,61.1,50.6,98.6,67.1,38.3,16.4,78.9,24.6,121.8,24.6h31.5v63h-31.5c-52,0-100.8-9.6-146.5-28.7-44.7-20.1-84.4-47-119.1-80.8-33.8-34.7-60.7-74.4-80.8-119.1-19.2-45.6-28.7-94.5-28.7-146.5V27.4Z"/>
  <path class="st0" d="M715.9,373.7l61.6,23.3v383.3h-61.6v-406.6ZM402.4,780.3c-52,0-100.8-9.6-146.5-28.7-44.7-20.1-84.4-47-119.1-80.8-33.8-34.7-60.7-74.4-80.8-119.1-19.2-45.6-28.7-94.5-28.7-146.5s9.6-100.8,28.7-146.5c20.1-45.6,47-85.3,80.8-119.1,34.7-34.7,74.4-61.6,119.1-80.8,45.6-20.1,94.4-30.1,146.5-30.1s100.8,10,146.5,30.1c45.6,19.2,85.3,46.1,119.1,80.8,34.7,33.8,61.6,73.5,80.8,119.1,20.1,45.6,30.1,94.5,30.1,146.5s-10,100.8-30.1,146.5c-19.2,44.7-46.1,84.4-80.8,119.1-33.8,33.8-73.5,60.7-119.1,80.8-45.6,19.2-94.4,28.7-146.5,28.7ZM402.4,91.7c-42.9,0-83.5,8.2-121.8,24.6-37.4,16.4-70.3,38.8-98.6,67.1-28.3,28.3-50.6,61.6-67.1,99.9-16.4,38.3-24.6,78.9-24.6,121.8s8.2,83.5,24.6,121.8c16.4,37.4,38.8,70.3,67.1,98.6,28.3,28.3,61.1,50.6,98.6,67.1,38.3,16.4,78.9,24.6,121.8,24.6s83.5-8.2,121.8-24.6c38.3-16.4,71.6-38.8,99.9-67.1,28.3-28.3,50.6-61.1,67.1-98.6,16.4-38.3,24.6-78.9,24.6-121.8s-8.2-83.5-24.6-121.8c-16.4-38.3-38.8-71.6-67.1-99.9-28.3-28.3-61.6-50.6-99.9-67.1-38.3-16.4-78.9-24.6-121.8-24.6Z"/>
</svg>